<svg id="visual" viewBox="0 0 900 200" width="900" height="200" xmlns="http://www.w3.org/2000/svg" xmlns:xlink="http://www.w3.org/1999/xlink" version="1.1"><path d="M0 157L21.5 157C43 157 86 157 128.8 152.7C171.7 148.3 214.3 139.7 257.2 140.3C300 141 343 151 385.8 156.5C428.7 162 471.3 163 514.2 159.5C557 156 600 148 642.8 142.8C685.7 137.7 728.3 135.3 771.2 136.7C814 138 857 143 878.5 145.5L900 148L900 0L878.5 0C857 0 814 0 771.2 0C728.3 0 685.7 0 642.8 0C600 0 557 0 514.2 0C471.3 0 428.7 0 385.8 0C343 0 300 0 257.2 0C214.3 0 171.7 0 128.8 0C86 0 43 0 21.5 0L0 0Z" fill="#242424"></path><path d="M0 107L21.5 106.3C43 105.7 86 104.3 128.8 105.5C171.7 106.7 214.3 110.3 257.2 112.3C300 114.3 343 114.7 385.8 118.3C428.7 122 471.3 129 514.2 128.8C557 128.7 600 121.3 642.8 118.5C685.7 115.7 728.3 117.3 771.2 113.8C814 110.3 857 101.7 878.5 97.3L900 93L900 0L878.5 0C857 0 814 0 771.2 0C728.3 0 685.7 0 642.8 0C600 0 557 0 514.2 0C471.3 0 428.7 0 385.8 0C343 0 300 0 257.2 0C214.3 0 171.7 0 128.8 0C86 0 43 0 21.5 0L0 0Z" fill="#434661"></path><path d="M0 65L21.5 69C43 73 86 81 128.8 85.5C171.7 90 214.3 91 257.2 88.3C300 85.7 343 79.3 385.8 75.7C428.7 72 471.3 71 514.2 70.2C557 69.3 600 68.7 642.8 71.2C685.7 73.7 728.3 79.3 771.2 83C814 86.7 857 88.3 878.5 89.2L900 90L900 0L878.5 0C857 0 814 0 771.2 0C728.3 0 685.7 0 642.8 0C600 0 557 0 514.2 0C471.3 0 428.7 0 385.8 0C343 0 300 0 257.2 0C214.3 0 171.7 0 128.8 0C86 0 43 0 21.5 0L0 0Z" fill="#616ba6"></path><path d="M0 28L21.5 32.5C43 37 86 46 128.8 46.7C171.7 47.3 214.3 39.7 257.2 36.3C300 33 343 34 385.8 37.3C428.7 40.7 471.3 46.3 514.2 49.8C557 53.3 600 54.7 642.8 50.3C685.7 46 728.3 36 771.2 35C814 34 857 42 878.5 46L900 50L900 0L878.5 0C857 0 814 0 771.2 0C728.3 0 685.7 0 642.8 0C600 0 557 0 514.2 0C471.3 0 428.7 0 385.8 0C343 0 300 0 257.2 0C214.3 0 171.7 0 128.8 0C86 0 43 0 21.5 0L0 0Z" fill="#8093f1"></path></svg>